<svg xmlns="http://www.w3.org/2000/svg" width="660" height="300" viewBox="0 0 660 300"><defs><style>.a,.e{fill:#f8f9fa;}.b{fill:#ffddbf;}.c,.h,.k,.q,.r,.s,.t,.u{fill:none;}.c,.d,.e,.f,.h,.j,.k,.m,.n,.q,.r,.s,.t,.u{stroke:#071d2b;}.c,.d,.h,.j,.k,.m,.n,.q,.r,.s,.t,.u{stroke-linecap:round;stroke-linejoin:round;}.c{stroke-width:2px;}.c,.g,.h,.i,.j,.l,.m,.u{fill-rule:evenodd;}.d{fill:#cfd5d9;}.d,.e,.f,.h,.j,.k,.m,.n,.q,.r,.s,.t{stroke-width:1.5px;}.e,.f{stroke-miterlimit:10;}.f,.g,.p{fill:#ff5833;}.i,.j,.n,.o{fill:#fff9f5;}.l{fill:#071d2b;}.m{fill:#fff;}.q{stroke-dasharray:5.78 5.78;}.r{stroke-dasharray:5.42 5.42;}.s{stroke-dasharray:4.78 4.78;}.t{stroke-dasharray:5.46 5.46;}.u{stroke-width:0.5px;}</style></defs><rect class="a" width="660" height="300"/><circle class="b" cx="532.81" cy="150" r="57.03"/><path class="c" d="M532.53,84.89q27.72,0,46.92,19.48,19.45,19.2,19.47,46.64a63.93,63.93,0,0,1-11.52,37.58l41.43,41.7a12.23,12.23,0,0,1,3.83,8,12.06,12.06,0,0,1-3.83,8.77q-4.11,4.13-8.23,3.85-4.68.27-8.23-3.85L570.66,205.6q-16.45,11.81-38.13,11.8-27.43,0-46.64-19.48-19.47-19.2-19.48-46.91,0-27.43,19.48-46.64Q505.11,84.9,532.53,84.89Zm54.87,103.7a54.23,54.23,0,0,1-7.95,9.33,57.4,57.4,0,0,1-8.79,7.68M490,151q-.27-17.28,12.62-30.18a43.68,43.68,0,0,1,30.18-12.07"/><rect class="d" x="119.26" y="169.25" width="418.87" height="114.52" rx="3.85"/><rect class="e" x="123.59" y="172.96" width="24.69" height="14.82" rx="1.56"/><rect class="e" x="151.8" y="172.96" width="15.05" height="15.05" rx="1.13"/><rect class="e" x="170.22" y="172.96" width="15.05" height="15.05" rx="1.13"/><rect class="e" x="188.86" y="172.96" width="15.05" height="15.05" rx="1.13"/><rect class="e" x="207.64" y="172.96" width="15.05" height="15.05" rx="1.13"/><rect class="e" x="226.55" y="172.96" width="15.05" height="15.05" rx="1.13"/><rect class="e" x="245.47" y="172.96" width="15.05" height="15.05" rx="1.13"/><rect class="e" x="264.46" y="172.96" width="15.05" height="15.05" rx="1.13"/><rect class="e" x="282.89" y="172.96" width="15.05" height="15.05" rx="1.13"/><rect class="e" x="301.87" y="172.96" width="15.05" height="15.05" rx="1.13"/><rect class="e" x="320.79" y="172.96" width="15.05" height="15.05" rx="1.13"/><rect class="e" x="339.71" y="172.96" width="15.05" height="15.05" rx="1.13"/><rect class="e" x="358.7" y="172.96" width="15.05" height="15.05" rx="1.13"/><rect class="e" x="377.53" y="172.96" width="15.05" height="15.05" rx="1.13"/><rect class="e" x="367.89" y="191.05" width="24.69" height="14.82" rx="1.56"/><rect class="e" x="123.59" y="190.94" width="15.05" height="15.05" rx="1.13"/><rect class="e" x="142.01" y="190.94" width="15.05" height="15.05" rx="1.13"/><rect class="e" x="160.65" y="190.94" width="15.05" height="15.05" rx="1.13"/><rect class="e" x="179.43" y="190.94" width="15.05" height="15.05" rx="1.13"/><rect class="e" x="198.34" y="190.94" width="15.05" height="15.05" rx="1.13"/><rect class="e" x="217.26" y="190.94" width="15.05" height="15.05" rx="1.13"/><rect class="e" x="236.25" y="190.94" width="15.05" height="15.05" rx="1.13"/><rect class="e" x="254.68" y="190.94" width="15.05" height="15.05" rx="1.13"/><rect class="e" x="273.66" y="190.94" width="15.05" height="15.05" rx="1.13"/><rect class="e" x="292.58" y="190.94" width="15.05" height="15.05" rx="1.13"/><rect class="e" x="311.5" y="190.94" width="15.05" height="15.05" rx="1.13"/><rect class="e" x="330.49" y="190.94" width="15.05" height="15.05" rx="1.13"/><rect class="e" x="349.32" y="190.94" width="15.05" height="15.05" rx="1.13"/><rect class="e" x="123.59" y="209.67" width="24.69" height="14.82" rx="1.56"/><rect class="e" x="151.8" y="209.67" width="15.05" height="15.05" rx="1.13"/><rect class="f" x="170.22" y="209.67" width="15.05" height="15.05" rx="1.13"/><rect class="e" x="188.86" y="209.67" width="15.05" height="15.05" rx="1.13"/><rect class="f" x="207.64" y="209.67" width="15.05" height="15.05" rx="1.13"/><rect class="e" x="226.55" y="209.67" width="15.05" height="15.05" rx="1.13"/><rect class="e" x="245.47" y="209.67" width="15.05" height="15.05" rx="1.13"/><rect class="e" x="264.46" y="209.67" width="15.05" height="15.05" rx="1.13"/><rect class="e" x="282.89" y="209.67" width="15.05" height="15.05" rx="1.13"/><rect class="f" x="301.87" y="209.67" width="15.05" height="15.05" rx="1.13"/><rect class="f" x="320.79" y="209.67" width="15.05" height="15.05" rx="1.13"/><rect class="e" x="339.71" y="209.67" width="15.05" height="15.05" rx="1.13"/><rect class="e" x="358.7" y="209.67" width="15.05" height="15.05" rx="1.13"/><rect class="e" x="123.59" y="227.81" width="29.04" height="14.82" rx="1.56"/><rect class="f" x="156.22" y="227.81" width="15.05" height="15.05" rx="1.13"/><rect class="f" x="174.65" y="227.81" width="15.05" height="15.05" rx="1.13"/><rect class="f" x="193.28" y="227.81" width="15.05" height="15.05" rx="1.13"/><rect class="e" x="212.06" y="227.81" width="15.05" height="15.05" rx="1.13"/><rect class="e" x="230.98" y="227.81" width="15.05" height="15.05" rx="1.13"/><rect class="e" x="249.89" y="227.81" width="15.05" height="15.05" rx="1.13"/><rect class="e" x="268.88" y="227.81" width="15.05" height="15.05" rx="1.13"/><rect class="e" x="287.31" y="227.81" width="15.05" height="15.05" rx="1.13"/><rect class="e" x="306.29" y="227.81" width="15.05" height="15.05" rx="1.13"/><rect class="e" x="325.21" y="227.81" width="15.05" height="15.05" rx="1.13"/><rect class="e" x="344.13" y="227.81" width="15.05" height="15.05" rx="1.13"/><rect class="e" x="363.12" y="227.81" width="15.05" height="15.05" rx="1.13"/><rect class="e" x="123.59" y="245.95" width="20.19" height="14.82" rx="1.56"/><rect class="e" x="147.02" y="245.95" width="15.05" height="15.05" rx="1.13"/><rect class="e" x="165.44" y="245.95" width="15.05" height="15.05" rx="1.13"/><rect class="e" x="184.08" y="245.95" width="15.05" height="15.05" rx="1.13"/><rect class="e" x="202.86" y="245.95" width="15.05" height="15.05" rx="1.13"/><rect class="e" x="221.77" y="245.95" width="15.05" height="15.05" rx="1.13"/><rect class="e" x="240.69" y="245.95" width="15.05" height="15.05" rx="1.13"/><rect class="e" x="259.68" y="245.95" width="15.05" height="15.05" rx="1.13"/><rect class="e" x="278.1" y="245.95" width="15.05" height="15.05" rx="1.13"/><rect class="e" x="297.09" y="245.95" width="15.05" height="15.05" rx="1.13"/><rect class="e" x="316.01" y="245.95" width="15.05" height="15.05" rx="1.13"/><rect class="e" x="334.93" y="245.95" width="15.05" height="15.05" rx="1.13"/><rect class="e" x="123.59" y="264.33" width="24.69" height="14.82" rx="1.56"/><rect class="e" x="174.61" y="264.33" width="24.69" height="14.82" rx="1.56"/><rect class="e" x="151.4" y="264.33" width="19.87" height="14.82" rx="1.56"/><rect class="e" x="316.01" y="264.33" width="24.69" height="14.82" rx="1.56"/><rect class="e" x="367.89" y="264.33" width="24.69" height="14.82" rx="1.56"/><rect class="e" x="344.36" y="264.33" width="19.87" height="14.82" rx="1.56"/><rect class="e" x="367.89" y="264.33" width="24.69" height="14.82" rx="1.56"/><rect class="e" x="202.99" y="264.33" width="109.33" height="14.82" rx="1.56"/><rect class="e" x="353.63" y="246.08" width="39.06" height="14.82" rx="1.56"/><path class="e" d="M390.46,209.43H379a2.13,2.13,0,0,0-2.12,2.12v10.58a2.13,2.13,0,0,0,2.12,2.12h.6a2.16,2.16,0,0,1,2.16,2.16v14.92a1.54,1.54,0,0,0,1.53,1.53h7.74a1.54,1.54,0,0,0,1.53-1.53V211.55A2.12,2.12,0,0,0,390.46,209.43Z"/><rect class="e" x="400" y="172.3" width="15.05" height="15.05" rx="1.13"/><rect class="e" x="419.3" y="172.3" width="15.05" height="15.05" rx="1.13"/><rect class="e" x="438.6" y="172.3" width="15.05" height="15.05" rx="1.13"/><rect class="e" x="400" y="190.78" width="15.05" height="15.05" rx="1.13"/><rect class="e" x="419.3" y="190.78" width="15.05" height="15.05" rx="1.13"/><rect class="e" x="438.6" y="190.78" width="15.05" height="15.05" rx="1.13"/><rect class="e" x="400" y="209.26" width="15.05" height="15.05" rx="1.13"/><rect class="e" x="419.3" y="209.26" width="15.05" height="15.05" rx="1.13"/><rect class="e" x="438.6" y="209.26" width="15.05" height="15.05" rx="1.13"/><rect class="e" x="461.19" y="172.3" width="15.05" height="15.05" rx="1.13"/><rect class="e" x="480.49" y="172.3" width="15.05" height="15.05" rx="1.13"/><rect class="e" x="499.78" y="172.3" width="15.05" height="15.05" rx="1.13"/><rect class="e" x="461.19" y="190.78" width="15.05" height="15.05" rx="1.13"/><rect class="e" x="480.49" y="190.78" width="15.05" height="15.05" rx="1.13"/><rect class="e" x="499.78" y="190.78" width="15.05" height="15.05" rx="1.13"/><rect class="e" x="461.19" y="209.26" width="15.05" height="15.05" rx="1.13"/><rect class="e" x="480.49" y="209.26" width="15.05" height="15.05" rx="1.13"/><rect class="e" x="499.78" y="209.26" width="15.05" height="15.05" rx="1.13"/><rect class="e" x="461.19" y="227.74" width="15.05" height="15.05" rx="1.13"/><rect class="e" x="480.49" y="227.74" width="15.05" height="15.05" rx="1.13"/><rect class="e" x="499.78" y="227.74" width="15.05" height="15.05" rx="1.13"/><rect class="e" x="461.19" y="246.22" width="15.05" height="15.05" rx="1.13"/><rect class="e" x="480.49" y="246.22" width="15.05" height="15.05" rx="1.13"/><rect class="e" x="499.78" y="246.22" width="15.05" height="15.05" rx="1.13"/><rect class="e" x="461.19" y="264.7" width="34.35" height="15.05" rx="1.13"/><rect class="e" x="499.78" y="264.7" width="15.05" height="15.05" rx="1.13"/><rect class="e" x="419.3" y="246.22" width="15.05" height="15.05" rx="1.13"/><rect class="e" x="400" y="264.7" width="15.05" height="15.05" rx="1.13"/><rect class="e" x="419.3" y="264.7" width="15.05" height="15.05" rx="1.13"/><rect class="e" x="438.6" y="264.7" width="15.05" height="15.05" rx="1.13"/><rect class="e" x="519.18" y="172.3" width="15.05" height="15.05" rx="1.13"/><rect class="e" x="519.18" y="190.78" width="15.05" height="15.05" rx="1.13"/><rect class="e" x="519.18" y="209.26" width="15.05" height="15.05" rx="1.13"/><rect class="e" x="519.18" y="227.74" width="15.05" height="15.05" rx="1.13"/><rect class="e" x="519.18" y="246.22" width="15.05" height="33.53" rx="1.13"/><path class="g" d="M244.26,53.5V84.71c0,1.83,1,2.74,3.06,2.74H302.6c1.94,0,2.91-.91,2.91-2.74V48.18q0-2.88-2.91-2.88H247.32q-3.06,0-3.06,2.88V53.5"/><path class="h" d="M311.44,35.28H239.93c-2.7,0-4.05,1.36-4.05,4.06V91.88q0,4,4.05,4h71.51q4,0,4-4V39.34C315.41,36.64,314.09,35.28,311.44,35.28Z"/><path class="h" d="M314.73,47.06l-29.6,24.63a15.93,15.93,0,0,1-9.79,3.13,15.05,15.05,0,0,1-9.18-3.13L236.64,47.06"/><ellipse class="b" cx="227.86" cy="89.33" rx="23.14" ry="21.46"/><path class="i" d="M363.1,123.47h-45a7.47,7.47,0,0,1-7.44-7.45V23.49a7.46,7.46,0,0,1,7.44-7.44h65.06a7.46,7.46,0,0,1,7.44,7.44v91.22"/><rect class="b" x="316.65" y="21.15" width="79.94" height="102.32" rx="4.45"/><path class="i" d="M379.44,107.3v-7c0-1.62-.66-2.58-2-2.87a4.25,4.25,0,0,0-1-.1H326.87a3,3,0,0,0-3,3v9.92a3,3,0,0,0,3,3H376.7a2.74,2.74,0,0,0,2.74-2.74Z"/><path class="j" d="M376.46,74.57H326.87a2.63,2.63,0,0,0-3,3v9.92a2.63,2.63,0,0,0,3,3h49.59a4.87,4.87,0,0,0,1-.1c1.33-.3,2-1.26,2-2.88V77.54c0-1.62-.66-2.58-2-2.87A4.25,4.25,0,0,0,376.46,74.57Z"/><path class="h" d="M379.44,107.3v-7c0-1.62-.66-2.58-2-2.87a4.25,4.25,0,0,0-1-.1H326.87a2.63,2.63,0,0,0-3,3v9.92c0,2,1,3,3,3h36.84"/><line class="k" x1="371.5" y1="82.5" x2="331.83" y2="82.5"/><path class="l" d="M331.39,106.75a2,2,0,0,1-.55-1.44,1.95,1.95,0,0,1,2-2,1.81,1.81,0,0,1,1.39.59,1.9,1.9,0,0,1,.6,1.39,2,2,0,0,1-.6,1.44,1.88,1.88,0,0,1-1.39.55A2,2,0,0,1,331.39,106.75Zm5.95,0a2,2,0,0,1-.55-1.44,1.95,1.95,0,0,1,2-2,1.81,1.81,0,0,1,1.39.59,1.9,1.9,0,0,1,.6,1.39,2,2,0,0,1-.6,1.44,1.88,1.88,0,0,1-1.39.55A2,2,0,0,1,337.34,106.75Zm6,0a2,2,0,0,1-.55-1.44,1.95,1.95,0,0,1,2-2,1.81,1.81,0,0,1,1.39.59,1.9,1.9,0,0,1,.6,1.39,2,2,0,0,1-.6,1.44,1.88,1.88,0,0,1-1.39.55A2,2,0,0,1,343.29,106.75Zm5.95-2.83a2,2,0,0,1,1.43-.59,1.81,1.81,0,0,1,1.39.59,1.9,1.9,0,0,1,.6,1.39,2,2,0,0,1-.6,1.44,1.88,1.88,0,0,1-1.39.55,1.89,1.89,0,0,1-2-2A2,2,0,0,1,349.24,103.92Zm9.37,1.39a2,2,0,0,1-.6,1.44,1.88,1.88,0,0,1-1.38.55,1.89,1.89,0,0,1-2-2,1.95,1.95,0,0,1,2-2,1.8,1.8,0,0,1,1.38.59A1.9,1.9,0,0,1,358.61,105.31Z"/><polygon class="m" points="379.95 113.82 369.96 105.51 369.96 114.51 369.96 132.45 376.89 127.14 381.16 136.2 383.06 135.28 386.46 133.72 383.06 126.68 382.14 124.66 390.73 122.7 383.06 116.41 379.95 113.82"/><circle class="n" cx="350.67" cy="45.06" r="19.61"/><path class="h" d="M353.72,37.37A4.42,4.42,0,0,1,355,40.49a4.1,4.1,0,0,1-1.24,3,4,4,0,0,1-3,1.29,4.41,4.41,0,0,1-4.36-4.32,4.35,4.35,0,0,1,1.29-3.12,4.15,4.15,0,0,1,3.07-1.24A4.08,4.08,0,0,1,353.72,37.37Z"/><path class="h" d="M343.16,54a7.46,7.46,0,0,1,7.54-7.34A7.07,7.07,0,0,1,356,48.83,7.16,7.16,0,0,1,358.19,54"/><path class="h" d="M363.1,123.47h-45a7.47,7.47,0,0,1-7.44-7.45V23.49a7.46,7.46,0,0,1,7.44-7.44h65.06a7.46,7.46,0,0,1,7.44,7.44v91.22"/><path class="h" d="M223.21,65.7a28.66,28.66,0,0,1,19.32,7l.29.29a23.53,23.53,0,0,1,8.06,18,24.48,24.48,0,0,1-1.14,7.54,23.14,23.14,0,0,1-2.75,5.49c-.53.69-1.05,1.37-1.54,2.06l3.09,11.72-11.44-4.86c-.87.45-1.75.87-2.63,1.26a8.22,8.22,0,0,1-1.43.51,29.42,29.42,0,0,1-9.83,1.6,28.21,28.21,0,0,1-19.66-7.37,23.11,23.11,0,0,1-8-15.38c-.07-.84-.11-1.7-.11-2.57v-.75a22.93,22.93,0,0,1,4.34-13A27.57,27.57,0,0,1,203.55,73a1.33,1.33,0,0,1,.4-.29,27.09,27.09,0,0,1,5.94-4.06c.23-.11.48-.23.75-.34A29.93,29.93,0,0,1,223.21,65.7Z"/><line class="k" x1="209.36" y1="83.37" x2="236.95" y2="83.37"/><line class="k" x1="203.61" y1="91.71" x2="241.4" y2="91.71"/><line class="k" x1="209.36" y1="99.31" x2="236.95" y2="99.31"/><rect class="o" x="384.69" y="56.98" width="70.88" height="51.05" rx="3.59"/><rect class="p" x="388.66" y="69.27" width="62.94" height="8.49" rx="0.78"/><path class="h" d="M451.8,57.21H388.57a3.88,3.88,0,0,0-3.88,3.88v8.15s0,0,0,0h70.86V61.09Q455.57,57.21,451.8,57.21Zm3.77,23.66H384.69v23.55c0,2.56,1.29,3.83,3.88,3.83h63.51a3.48,3.48,0,0,0,3.49-3.48V80.87"/><line class="k" x1="421.73" y1="95.34" x2="407.21" y2="95.34"/><line class="k" x1="400.75" y1="95.34" x2="392.12" y2="95.34"/><line class="k" x1="384.69" y1="69.27" x2="384.69" y2="80.87"/><line class="k" x1="455.57" y1="69.27" x2="455.57" y2="80.87"/><line class="k" x1="277.56" y1="101.14" x2="278.14" y2="104.09"/><line class="q" x1="279.25" y1="109.76" x2="287.58" y2="152.32"/><line class="k" x1="288.14" y1="155.16" x2="288.71" y2="158.1"/><line class="k" x1="233.27" y1="123.45" x2="234.98" y2="125.91"/><line class="r" x1="238.08" y1="130.37" x2="255.08" y2="154.87"/><line class="k" x1="256.63" y1="157.09" x2="258.34" y2="159.56"/><line class="k" x1="350.03" y1="130.1" x2="349.3" y2="133.01"/><line class="s" x1="348.13" y1="137.65" x2="344.05" y2="153.88"/><line class="k" x1="343.47" y1="156.2" x2="342.74" y2="159.11"/><line class="k" x1="418.39" y1="115.62" x2="416.52" y2="117.96"/><line class="t" x1="413.1" y1="122.22" x2="387.49" y2="154.14"/><line class="k" x1="385.78" y1="156.26" x2="383.9" y2="158.6"/><path class="u" d="M304,212.82a4.2,4.2,0,0,1,.48-.54,7,7,0,0,1,9.62,0,7.73,7.73,0,0,1,.67.73m-2.59,13.52a7.8,7.8,0,0,1-4.95-7.85,2,2,0,0,1,.63-1.49,2.21,2.21,0,0,1,1.57-.62,2.07,2.07,0,0,1,1.53.62,2,2,0,0,1,.69,1.49,2.1,2.1,0,0,1,0,.36,2,2,0,0,0,0,.45,1.85,1.85,0,0,0,.56,1.34,2,2,0,0,0,1.38.52,1.92,1.92,0,0,0,1.37-.52,1.81,1.81,0,0,0,.59-1.34,8.13,8.13,0,0,0-.48-3.26,6.91,6.91,0,0,0-1.57-2.32,5.73,5.73,0,0,0-4.13-1.63,5.67,5.67,0,0,0-4.11,1.63,5.34,5.34,0,0,0-1.46,2.32,10.7,10.7,0,0,0,0,6.24m3.44,2.23a8.7,8.7,0,0,1-2-6.13,4,4,0,0,1,1.18-2.89,4.34,4.34,0,0,1,2.93-1.1,4.22,4.22,0,0,1,2.93,1.1,3.83,3.83,0,0,1,1.29,2.89,4.67,4.67,0,0,1,0,.52m-8-9.69a7.59,7.59,0,0,1,3.7-.9,7.48,7.48,0,0,1,4.12,1.14m-3.9,9.27q.3,4.78,4.27,4.87"/><path class="u" d="M324.76,213.49a2.89,2.89,0,0,1,.47-.38,5.85,5.85,0,0,1,7.95,1.27,6.36,6.36,0,0,1,.46.69m-3.94,10.84a6.51,6.51,0,0,1-3.05-7.14,1.74,1.74,0,0,1,.72-1.15,1.85,1.85,0,0,1,1.38-.31,1.76,1.76,0,0,1,1.18.72,1.6,1.6,0,0,1,.37,1.32,1.37,1.37,0,0,1-.07.29,1.81,1.81,0,0,0-.1.37,1.52,1.52,0,0,0,.29,1.18,1.71,1.71,0,0,0,1.07.62,1.61,1.61,0,0,0,1.2-.26,1.47,1.47,0,0,0,.67-1,6.82,6.82,0,0,0,0-2.77,6,6,0,0,0-1-2.12,4.83,4.83,0,0,0-3.2-1.9,4.77,4.77,0,0,0-3.61.81,4.34,4.34,0,0,0-1.51,1.72,8.9,8.9,0,0,0-.83,5.17m2.54,2.29a7.33,7.33,0,0,1-.82-5.33,3.34,3.34,0,0,1,1.36-2.23,3.74,3.74,0,0,1,4.85.78,3.21,3.21,0,0,1,.68,2.56,4,4,0,0,1-.09.42m-5.35-9.07a6.76,6.76,0,0,1,6.43,1.23m-4.45,7.15q-.39,4,2.88,4.59"/><path class="u" d="M177,232.39a4.52,4.52,0,0,1,.32-.52,5.88,5.88,0,0,1,7.93-1.42,6.45,6.45,0,0,1,.66.51m-.15,11.52a6.51,6.51,0,0,1-5.23-5.74,1.78,1.78,0,0,1,.29-1.32,1.88,1.88,0,0,1,1.21-.74,1.77,1.77,0,0,1,1.36.28,1.65,1.65,0,0,1,.78,1.13,1.69,1.69,0,0,1,0,.3,1.27,1.27,0,0,0,0,.38,1.49,1.49,0,0,0,.65,1,1.7,1.7,0,0,0,1.22.23,1.62,1.62,0,0,0,1.05-.64,1.46,1.46,0,0,0,.29-1.18,6.66,6.66,0,0,0-.88-2.62A5.67,5.67,0,0,0,185,231.9a4.81,4.81,0,0,0-3.65-.74,4.75,4.75,0,0,0-3.14,2,4.36,4.36,0,0,0-.86,2.13,8.91,8.91,0,0,0,.92,5.15m3.15,1.32a7.25,7.25,0,0,1-2.52-4.75,3.32,3.32,0,0,1,.54-2.56,3.62,3.62,0,0,1,2.25-1.34,3.49,3.49,0,0,1,2.58.48,3.19,3.19,0,0,1,1.49,2.19,3,3,0,0,1,.05.43m-8-6.8a6.7,6.7,0,0,1,6.47-1m-1.85,8.22c.63,2.59,2,3.72,4.24,3.38"/><path class="u" d="M158.86,230a4.42,4.42,0,0,1,.53-.44,6.24,6.24,0,0,1,4.77-1.06,6.31,6.31,0,0,1,4.21,2.5,8.13,8.13,0,0,1,.52.78M164.44,244A7.37,7.37,0,0,1,161,236a2,2,0,0,1,.81-1.3,2.1,2.1,0,0,1,1.55-.34,2,2,0,0,1,1.35.81,1.84,1.84,0,0,1,.41,1.49,1.59,1.59,0,0,1-.08.33,1.64,1.64,0,0,0-.11.41,1.74,1.74,0,0,0,.32,1.34,2,2,0,0,0,1.21.7,1.83,1.83,0,0,0,1.36-.29,1.71,1.71,0,0,0,.75-1.16,7.65,7.65,0,0,0,0-3.12,6.5,6.5,0,0,0-1.12-2.4,5.47,5.47,0,0,0-3.61-2.14,5.37,5.37,0,0,0-4.08.91,5,5,0,0,0-1.71,1.94,10.16,10.16,0,0,0-.93,5.84m2.87,2.58a8.23,8.23,0,0,1-.93-6,3.8,3.8,0,0,1,1.54-2.52,4,4,0,0,1,2.89-.59,4,4,0,0,1,2.58,1.47,3.61,3.61,0,0,1,.77,2.89,2.89,2.89,0,0,1-.11.47m-6-10.23a7.61,7.61,0,0,1,7.26,1.38m-5,8.08c-.29,3,.8,4.72,3.26,5.18"/><path class="u" d="M193.76,231.81a5.11,5.11,0,0,1,.48-.55,7,7,0,0,1,9.62,0,7.73,7.73,0,0,1,.67.73m-2.59,13.52a7.78,7.78,0,0,1-4.95-7.84,2.08,2.08,0,0,1,.63-1.5,2.26,2.26,0,0,1,1.57-.62,2.11,2.11,0,0,1,1.53.62,2,2,0,0,1,.66,1.85,2.14,2.14,0,0,0,0,.45,1.84,1.84,0,0,0,.56,1.34,2.06,2.06,0,0,0,1.38.53,1.93,1.93,0,0,0,1.37-.53,1.79,1.79,0,0,0,.59-1.34,8.13,8.13,0,0,0-.48-3.26,7,7,0,0,0-1.57-2.32,5.77,5.77,0,0,0-4.13-1.63,5.71,5.71,0,0,0-4.11,1.63,5.4,5.4,0,0,0-1.46,2.32,10.73,10.73,0,0,0,0,6.25m3.44,2.22a8.68,8.68,0,0,1-2-6.12,4,4,0,0,1,1.18-2.89,4.3,4.3,0,0,1,2.93-1.11,4.18,4.18,0,0,1,2.93,1.11,3.82,3.82,0,0,1,1.29,2.89,4.63,4.63,0,0,1,0,.51m-8-9.68a7.6,7.6,0,0,1,3.7-.91,7.48,7.48,0,0,1,4.12,1.14m-3.9,9.28q.3,4.77,4.27,4.86"/><path class="u" d="M174.11,210.88a3,3,0,0,1,.47-.39,5.87,5.87,0,0,1,7.95,1.28,6.36,6.36,0,0,1,.46.69m-3.94,10.83a6.51,6.51,0,0,1-3.05-7.14,1.79,1.79,0,0,1,.71-1.15,2,2,0,0,1,1.38-.31,1.76,1.76,0,0,1,1.19.72,1.65,1.65,0,0,1,.37,1.33c0,.1,0,.19-.07.29a1.26,1.26,0,0,0-.1.36,1.52,1.52,0,0,0,.29,1.18,1.67,1.67,0,0,0,1.07.62,1.63,1.63,0,0,0,1.2-.25,1.53,1.53,0,0,0,.67-1,6.77,6.77,0,0,0,0-2.76,5.79,5.79,0,0,0-1-2.12,4.79,4.79,0,0,0-3.2-1.9,4.72,4.72,0,0,0-3.61.8,4.48,4.48,0,0,0-1.52,1.73,8.93,8.93,0,0,0-.82,5.16m2.54,2.29a7.26,7.26,0,0,1-.82-5.32,3.32,3.32,0,0,1,1.36-2.23,3.71,3.71,0,0,1,4.84.77,3.19,3.19,0,0,1,.59,3m-5.34-9.06a6.23,6.23,0,0,1,3.17-.26,6.37,6.37,0,0,1,3.26,1.48m-4.46,7.16q-.37,4,2.89,4.59"/><path class="u" d="M209.3,213.85a3.13,3.13,0,0,1,.34-.62,6.74,6.74,0,0,1,9-2,6.78,6.78,0,0,1,.78.54m.39,13.26a7.52,7.52,0,0,1-6.29-6.34,2,2,0,0,1,.28-1.54,2.18,2.18,0,0,1,1.34-.91,2,2,0,0,1,1.58.26,1.93,1.93,0,0,1,1,1.26,2.15,2.15,0,0,1,0,.34,1.75,1.75,0,0,0,.05.44,1.8,1.8,0,0,0,.81,1.14,2,2,0,0,0,1.41.2,1.84,1.84,0,0,0,1.17-.78,1.75,1.75,0,0,0,.28-1.38,8,8,0,0,0-1.14-3,6.8,6.8,0,0,0-2-1.85,5.56,5.56,0,0,0-4.23-.66,5.42,5.42,0,0,0-3.51,2.39,5,5,0,0,0-.89,2.48,10.28,10.28,0,0,0,1.31,5.88m3.69,1.37a8.41,8.41,0,0,1-3.14-5.35,3.86,3.86,0,0,1,.51-3,4.27,4.27,0,0,1,5.5-1.23,3.68,3.68,0,0,1,1.82,2.45,3.58,3.58,0,0,1,.08.49M210,210.33a7.35,7.35,0,0,1,3.29-1.63,7.22,7.22,0,0,1,4.11.21m-1.72,9.54c.85,2.94,2.53,4.17,5,3.67"/></svg>